<svg width="152.000000pt" height="152.000000pt" viewBox="0 0 152.000000 152.000000" xmlns="http://www.w3.org/2000/svg">
  <g transform="translate(0.000000,152.000000) scale(0.100000,-0.100000)" fill="#de252a" stroke="none">
    <path d="M560 1506 l-45 -13 -61 -24 -60 -25 -70 -47 -69 -46 -47 -48 -46 -48
-45 -67 -45 -66 -33 -84 -33 -83 -4 -166 -4 -166 16 -64 17 -63 34 -71 34 -70
46 -63 47 -62 19 0 19 0 41 37 40 36 26 44 25 43 19 51 20 51 15 102 15 101 6
293 6 292 109 0 108 0 0 -162 0 -163 -10 -165 -10 -165 -15 -85 -14 -85 -20
-56 -19 -56 -28 -57 -27 -56 -59 -70 -58 -69 0 -9 0 -10 50 -21 49 -21 62 -16
61 -16 162 4 161 4 90 34 90 35 73 50 74 49 50 55 49 56 35 53 35 52 29 69 28
69 12 54 12 54 -4 154 -5 155 -28 78 -27 77 -47 73 -48 72 -40 45 -41 45 -36
-18 -37 -17 -50 -47 -51 -47 -25 -44 -25 -43 -19 -60 -19 -61 0 -23 0 -24 43
1 42 0 58 -1 57 -1 0 -110 0 -110 -115 0 -115 0 0 -245 0 -245 -111 0 -112 0
6 287 6 288 10 85 11 86 20 79 20 80 39 80 40 80 65 70 65 70 1 17 0 16 -47
18 -48 17 -175 3 -175 3 -45 -13z" />
  </g>
  <g transform="translate(0.000000,152.000000) scale(0.100000,-0.100000)" fill="#fdfbfb" stroke="none">
    <path d="M1 1183 l1 -338 13 65 13 65 28 70 28 69 44 66 44 65 37 39 36 38 50
37 50 38 46 26 46 27 73 26 73 25 56 8 56 9 -347 1 -348 1 1 -337z" />
    <path d="M885 1509 l59 -9 48 -16 48 -16 0 -6 -1 -7 -65 -70 -65 -70 -40 -80
-39 -80 -20 -80 -20 -79 -11 -86 -10 -85 -6 -297 -6 -298 122 0 121 0 0 245 0
245 115 0 115 0 0 120 0 120 -7 1 -8 0 -92 2 -93 2 0 12 0 11 19 61 19 60 25
43 25 44 50 46 49 46 31 16 31 16 44 -53 45 -52 40 -63 41 -63 25 -77 25 -77
10 -50 9 -50 1 343 1 342 -347 -1 -348 -1 60 -9z" />
    <path d="M427 998 l-6 -293 -15 -101 -15 -102 -20 -51 -19 -51 -25 -43 -26
-44 -40 -36 -41 -37 -9 0 -9 0 -39 52 -40 53 -26 45 -26 45 -21 55 -22 55 -13
70 -13 70 -1 -342 -1 -343 338 1 337 2 -25 4 -25 4 -58 14 -58 15 -49 21 -49
21 58 69 58 69 27 56 28 57 19 56 20 56 14 85 15 85 10 165 10 165 0 173 0
172 -118 0 -119 0 -6 -292z" />
    <path d="M1510 653 l0 -28 -14 -50 -13 -50 -26 -62 -25 -62 -35 -53 -36 -53
-49 -56 -50 -55 -74 -49 -73 -50 -88 -33 -88 -33 -57 -8 -57 -9 348 -1 347 -1
0 340 0 340 -5 0 -5 0 0 -27z" />
  </g>
</svg>