<svg width="40.000000pt" height="40.000000pt" viewBox="0 0 40.000000 40.000000" xmlns="http://www.w3.org/2000/svg">
  <g transform="translate(0.000000,40.000000) scale(0.100000,-0.100000)" fill="#ffffff" stroke="none">
    <path d="M0 200 l0 -200 200 0 200 0 0 200 0 200 -200 0 -200 0 0 -200z m245
130 l39 -40 -32 0 -32 0 0 -95 0 -95 -20 0 -20 0 0 95 0 95 -32 0 -32 0 39 40
39 40 6 0 6 0 39 -40z m135 -295 l0 -15 -180 0 -180 0 0 15 0 15 180 0 180 0
0 -15z" />
  </g>
  <g transform="translate(0.000000,40.000000) scale(0.100000,-0.100000)" fill="#bae0bd" stroke="none">
    <path d="M152 337 l-32 -33 0 -12 0 -12 25 0 25 0 0 -95 0 -95 30 0 30 0 0 95
0 95 25 0 25 0 0 13 0 13 -33 32 -33 32 -15 0 -15 0 -32 -33z" />
    <path d="M10 35 l0 -25 190 0 190 0 0 25 0 25 -190 0 -190 0 0 -25z" />
  </g>
  <g transform="translate(0.000000,40.000000) scale(0.100000,-0.100000)" fill="#5e9c76" stroke="none">
    <path d="M96 291 l-7 -11 40 0 41 0 0 -95 0 -95 30 0 30 0 0 95 0 95 42 0 42
0 -10 10 -9 9 -38 -6 -37 -6 0 -93 0 -94 -20 0 -20 0 0 95 0 95 -17 0 -18 0
-21 6 -22 6 -6 -11z" />
    <path d="M10 35 l0 -25 190 0 190 0 0 25 0 25 -190 0 -190 0 0 -25z m370 0 l0
-15 -180 0 -180 0 0 15 0 15 180 0 180 0 0 -15z" />
  </g>
  <g transform="translate(0.000000,40.000000) scale(0.100000,-0.100000)" fill="#b0d2b9" stroke="none">
    <path d="M140 334 l-55 -55 20 7 20 7 38 35 37 36 38 -36 37 -35 20 -7 20 -7
-55 55 -54 56 -6 0 -6 0 -54 -56z" />
  </g>
  <g transform="translate(0.000000,40.000000) scale(0.100000,-0.100000)" fill="#6ea783" stroke="none">
    <path d="M150 333 l-45 -48 48 45 47 44 48 -44 47 -45 -45 48 -44 47 -6 0 -6
0 -44 -47z" />
  </g>
</svg>